<svg id="brain" xmlns="http://www.w3.org/2000/svg" width="62" height="62" viewBox="0 0 62 62">
  <path id="Path_2" data-name="Path 2" d="M60,7H59V5a4,4,0,0,0-8,0V7H48.858a3.981,3.981,0,0,0-7.716,0H22.858a3.981,3.981,0,0,0-7.716,0H13V5A4,4,0,0,0,5,5V7H4a3,3,0,0,0,0,6H5v2a4,4,0,0,0,8,0V13h2.142A4,4,0,0,0,18,15.858V18a13.853,13.853,0,0,0,1.324,5.906,7,7,0,0,0-.288,1.38,6.969,6.969,0,0,0-4.2,10.005,6.981,6.981,0,0,0,4.233,11.64A7,7,0,0,0,25,52.92v4.222A4,4,0,0,0,22,61v2h8V61a4,4,0,0,0-3-3.858V52.925A7.014,7.014,0,0,0,32,49.6a7.014,7.014,0,0,0,5,3.322v4.217A4,4,0,0,0,34,61v2h8V61a4,4,0,0,0-3-3.858V52.921a7.008,7.008,0,0,0,5.964-6.207,6.969,6.969,0,0,0,4.2-10.005,6.981,6.981,0,0,0-4.233-11.64,7.052,7.052,0,0,0-.253-1.168A13.832,13.832,0,0,0,46,18V15.858A4,4,0,0,0,48.858,13H51v2a4,4,0,1,0,8,0V13h1a3,3,0,1,0,0-6ZM4,11A1,1,0,0,1,4,9H5v2Zm7,4a2,2,0,0,1-4,0V5a2,2,0,0,1,4,0Zm2-6h2v2H13Zm28,2H23V9H41ZM17,12V8a2,2,0,0,1,4,0v4a2,2,0,0,1-4,0ZM28,61H24a2,2,0,0,1,4,0Zm12,0H36a2,2,0,0,1,4,0Zm9-29a5.006,5.006,0,0,1-5,5v2a6.944,6.944,0,0,0,3.574-.992,4.968,4.968,0,0,1-3.743,6.916L43,45.153V46a5,5,0,0,1-10,0H31a5,5,0,1,1-5-5V39a7,7,0,0,0-6.906,5.908A4.995,4.995,0,0,1,20,35V33a6.944,6.944,0,0,0-3.574.992,4.968,4.968,0,0,1,3.743-6.916L21,26.847V26a5,5,0,0,1,10,0h2a5,5,0,1,1,5,5v2a7,7,0,0,0,6.906-5.908A5,5,0,0,1,49,32ZM38,19a7,7,0,0,0-6,3.4,6.988,6.988,0,0,0-11.432-.8A11.9,11.9,0,0,1,20,18V15.858A4,4,0,0,0,22.858,13H41.142A4,4,0,0,0,44,15.858V18a11.943,11.943,0,0,1-.566,3.595A6.991,6.991,0,0,0,38,19Zm9-7a2,2,0,0,1-4,0V8a2,2,0,0,1,4,0Zm2-1V9h2v2Zm8,4a2,2,0,0,1-4,0V5a2,2,0,0,1,4,0Zm3-4H59V9h1a1,1,0,0,1,0,2Z" transform="translate(-1 -1)" fill="#fff"/>
  <path id="Path_3" data-name="Path 3" d="M23,46a3,3,0,0,0,3,3V47a1,1,0,0,1,0-2V43A3,3,0,0,0,23,46Z" transform="translate(-1 -1)" fill="#fff"/>
  <path id="Path_4" data-name="Path 4" d="M38,42v2a4,4,0,0,0,4-4H40A2,2,0,0,1,38,42Z" transform="translate(-1 -1)" fill="#fff"/>
  <path id="Path_5" data-name="Path 5" d="M37,35a2,2,0,0,1-2,2v2a4,4,0,0,0,4-4Z" transform="translate(-1 -1)" fill="#fff"/>
  <path id="Path_6" data-name="Path 6" d="M30,42v2a4,4,0,0,0,4-4H32A2,2,0,0,1,30,42Z" transform="translate(-1 -1)" fill="#fff"/>
  <path id="Path_7" data-name="Path 7" d="M32,32a4,4,0,0,0-4-4v2a2,2,0,0,1,2,2Z" transform="translate(-1 -1)" fill="#fff"/>
  <path id="Path_8" data-name="Path 8" d="M21,29v2a2,2,0,0,1,2,2h2A4,4,0,0,0,21,29Z" transform="translate(-1 -1)" fill="#fff"/>
  <path id="Path_9" data-name="Path 9" d="M41,26a3,3,0,0,0-3-3v2a1,1,0,0,1,0,2v2A3,3,0,0,0,41,26Z" transform="translate(-1 -1)" fill="#fff"/>
</svg>
