<svg xmlns="http://www.w3.org/2000/svg" width="50.88" height="50.88" viewBox="0 0 50.88 50.88">
  <g id="level" transform="translate(0 0)">
    <path id="Path_10" data-name="Path 10" d="M19.61,16.96H3.71A3.714,3.714,0,0,1,0,13.25V3.71A3.714,3.714,0,0,1,3.71,0h15.9a3.714,3.714,0,0,1,3.71,3.71v9.54A3.714,3.714,0,0,1,19.61,16.96ZM3.71,3.18a.53.53,0,0,0-.53.53v9.54a.53.53,0,0,0,.53.53h15.9a.53.53,0,0,0,.53-.53V3.71a.53.53,0,0,0-.53-.53Zm0,0" transform="translate(0 0)" fill="#fff"/>
    <path id="Path_11" data-name="Path 11" d="M19.61,243.012H3.71A3.714,3.714,0,0,1,0,239.3v-22.26a3.714,3.714,0,0,1,3.71-3.71h15.9a3.714,3.714,0,0,1,3.71,3.71V239.3A3.714,3.714,0,0,1,19.61,243.012Zm-15.9-26.5a.53.53,0,0,0-.53.53V239.3a.53.53,0,0,0,.53.53h15.9a.53.53,0,0,0,.53-.53v-22.26a.53.53,0,0,0-.53-.53Zm0,0" transform="translate(0 -192.132)" fill="#fff"/>
    <path id="Path_12" data-name="Path 12" d="M296.942,358.292h-15.9a3.714,3.714,0,0,1-3.71-3.71v-9.54a3.714,3.714,0,0,1,3.71-3.71h15.9a3.714,3.714,0,0,1,3.71,3.71v9.54A3.714,3.714,0,0,1,296.942,358.292Zm-15.9-13.78a.53.53,0,0,0-.53.53v9.54a.53.53,0,0,0,.53.53h15.9a.53.53,0,0,0,.53-.53v-9.54a.53.53,0,0,0-.53-.53Zm0,0" transform="translate(-249.772 -307.412)" fill="#fff"/>
    <path id="Path_13" data-name="Path 13" d="M296.942,29.68h-15.9a3.714,3.714,0,0,1-3.71-3.71V3.71A3.714,3.714,0,0,1,281.042,0h15.9a3.714,3.714,0,0,1,3.71,3.71V25.97A3.714,3.714,0,0,1,296.942,29.68Zm-15.9-26.5a.53.53,0,0,0-.53.53V25.97a.53.53,0,0,0,.53.53h15.9a.53.53,0,0,0,.53-.53V3.71a.53.53,0,0,0-.53-.53Zm0,0" transform="translate(-249.772 0)" fill="#fff"/>
  </g>
</svg>
