<svg xmlns="http://www.w3.org/2000/svg" width="50" height="50" viewBox="0 0 50 50">
  <path id="share" d="M39.286,28.571a10.679,10.679,0,0,0-8.619,4.409L20.916,28.1a10.57,10.57,0,0,0,.513-3.1,10.569,10.569,0,0,0-.513-3.1l9.751-4.877a10.67,10.67,0,1,0-2.1-6.305,10.568,10.568,0,0,0,.513,3.1l-9.751,4.877a10.714,10.714,0,1,0,0,12.611l9.751,4.877a10.567,10.567,0,0,0-.513,3.1A10.714,10.714,0,1,0,39.286,28.571Zm0-25a7.143,7.143,0,1,1-7.143,7.143A7.151,7.151,0,0,1,39.286,3.571ZM10.714,32.143A7.143,7.143,0,1,1,17.857,25,7.151,7.151,0,0,1,10.714,32.143ZM39.286,46.428a7.143,7.143,0,1,1,7.143-7.143A7.151,7.151,0,0,1,39.286,46.428Z" transform="translate(0)" fill="#fff"/>
</svg>
