<svg xmlns="http://www.w3.org/2000/svg" width="50" height="50" viewBox="0 0 50 50">
  <g id="sound" transform="translate(0.001 -0.001)">
    <path id="Path_15" data-name="Path 15" d="M391.036,332.995a1.09,1.09,0,1,0,.772,1.336A1.089,1.089,0,0,0,391.036,332.995Zm0,0" transform="translate(-351.793 -297.935)" fill="#fff"/>
    <path id="Path_16" data-name="Path 16" d="M103.718,335.1a1.09,1.09,0,1,0-1.336-.771A1.09,1.09,0,0,0,103.718,335.1Zm0,0" transform="translate(-92.398 -297.935)" fill="#fff"/>
    <path id="Path_17" data-name="Path 17" d="M48.882,33.794a27.354,27.354,0,0,0,1.1-7.479A26.76,26.76,0,0,0,42.528,7.7,24.34,24.34,0,0,0,25,0C11.54,0,.022,11.75.022,26.315a27.354,27.354,0,0,0,1.1,7.48,3.319,3.319,0,0,0-1.02,3.3L2.624,47.26a2.911,2.911,0,0,0,3.585,2.234l2.99-.865a2.83,2.83,0,0,0,3.17,1.264l3.77-1.091a3.194,3.194,0,0,0,2.069-3.867L14.673,30.7a2.915,2.915,0,0,0-3.585-2.233L7.318,29.559a2.834,2.834,0,0,0-1.056.572A19.954,19.954,0,0,1,5.9,27.22a3.052,3.052,0,0,0,2.007-2.656c.8-8.9,8.473-16.143,17.094-16.143s16.289,7.242,17.094,16.143A3.051,3.051,0,0,0,44.1,27.22a19.955,19.955,0,0,1-.363,2.911,2.837,2.837,0,0,0-1.056-.572L38.911,28.47A2.915,2.915,0,0,0,35.326,30.7L31.791,44.936A3.194,3.194,0,0,0,33.86,48.8l3.771,1.091A2.829,2.829,0,0,0,40.8,48.629l2.99.865a2.911,2.911,0,0,0,3.584-2.234L49.9,37.093a3.321,3.321,0,0,0-1.019-3.3Zm-41.059-2.2,3.769-1.09a.972.972,0,0,1,1.2.744L16.323,45.48a1.065,1.065,0,0,1-.69,1.289l-.943.272-1.767-7.117a.971.971,0,0,0-1.195-.744,1.063,1.063,0,0,0-.69,1.289l1.767,7.118-.942.272a.973.973,0,0,1-1.2-.745h0L7.133,32.881a1.064,1.064,0,0,1,.69-1.288Zm.708,15.05L5.7,47.46a.97.97,0,0,1-1.2-.745L1.983,36.55a1.075,1.075,0,0,1,.628-1.269c.023-.009.046-.016.062-.021l2.787-.806c.285.766-.235-.99,3.07,12.189ZM2,27.367H3.952a22.95,22.95,0,0,0,.858,5.1l-1.875.543A25.722,25.722,0,0,1,2,27.367ZM44.035,24.36C43.113,14.162,34.533,6.316,25,6.316S6.885,14.167,5.963,24.36a.982.982,0,0,1-.957.9H2C2.543,12.6,12.853,2.105,25,2.105S47.456,12.6,48,25.262H44.992a.982.982,0,0,1-.957-.9ZM48,27.367a25.744,25.744,0,0,1-.935,5.638l-1.876-.542a22.962,22.962,0,0,0,.858-5.1ZM39.33,47.114h0a.972.972,0,0,1-1.194.745l-.943-.273,1.767-7.117a1.063,1.063,0,0,0-.69-1.289.971.971,0,0,0-1.195.744l-1.767,7.117-.942-.273a1.064,1.064,0,0,1-.69-1.289l3.535-14.234a.993.993,0,0,1,.943-.78.913.913,0,0,1,.253.036l3.769,1.089a1.065,1.065,0,0,1,.691,1.288Zm8.685-10.566L45.49,46.716a.97.97,0,0,1-1.194.744l-2.827-.818c3.307-13.184,2.785-11.422,3.07-12.189,2.969.859,2.8.806,2.857.83a1.073,1.073,0,0,1,.621,1.265Zm0,0" transform="translate(0 0)" fill="#fff"/>
  </g>
</svg>
