<svg xmlns="http://www.w3.org/2000/svg" width="168" height="67" viewBox="0 0 168 67">
  <g id="hint_lv14" transform="translate(-495 -720)">
    <g id="Polygon_11" data-name="Polygon 11" transform="translate(495 720)" fill="none">
      <path d="M38.5,0,77,67H0Z" stroke="none"/>
      <path d="M 38.5 2.007118225097656 L 1.72796630859375 66 L 75.27203369140625 66 L 38.5 2.007118225097656 M 38.5 0 L 77 67 L 0 67 L 38.5 0 Z" stroke="none"/>
    </g>
    <g id="Polygon_12" data-name="Polygon 12" transform="translate(579 744)" fill="none">
      <path d="M25,0,50,43H0Z" stroke="none"/>
      <path d="M 25 1.989578247070313 L 1.738124847412109 42 L 48.26187515258789 42 L 25 1.989578247070313 M 25 0 L 50 43 L 0 43 L 25 0 Z" stroke="none"/>
    </g>
    <g id="Polygon_13" data-name="Polygon 13" transform="translate(640 767)" fill="none">
      <path d="M11.5,0,23,20H0Z" stroke="none"/>
      <path d="M 11.5 2.006139755249023 L 1.728530883789063 19 L 21.27146911621094 19 L 11.5 2.006139755249023 M 11.5 0 L 23 20 L 0 20 L 11.5 0 Z" stroke="none"/>
    </g>
  </g>
</svg>
