<svg xmlns="http://www.w3.org/2000/svg" width="121" height="133" viewBox="0 0 121 133">
  <g id="lv14" transform="translate(-440 -642)">
    <g id="Group_37" data-name="Group 37">
      <g id="Polygon_4" data-name="Polygon 4" transform="translate(453 642)" fill="#fff">
        <path d="M 52.13492202758789 45.5 L 0.8650790452957153 45.5 L 26.5 1.001646637916565 L 52.13492202758789 45.5 Z" stroke="none"/>
        <path d="M 26.5 2.003292083740234 L 1.730159759521484 45 L 51.26984024047852 45 L 26.5 2.003292083740234 M 26.5 0 L 53 46 L 0 46 L 26.5 0 Z" stroke="none"/>
      </g>
      <g id="Polygon_5" data-name="Polygon 5" transform="translate(492.5 687) rotate(180)" fill="#fff">
        <path d="M 25.12378120422363 21.5 L 0.8762181997299194 21.5 L 13 0.9828307628631592 L 25.12378120422363 21.5 Z" stroke="none"/>
        <path d="M 13 1.965688705444336 L 1.752452850341797 21 L 24.2475471496582 21 L 13 1.965688705444336 M 13 0 L 26 22 L 0 22 L 13 0 Z" stroke="none"/>
      </g>
    </g>
    <g id="Group_38" data-name="Group 38" transform="translate(9 -8)">
      <g id="Polygon_4-2" data-name="Polygon 4" transform="translate(431 715)" fill="#fff">
        <path d="M 77.13683319091797 67.5 L 0.8631658554077148 67.5 L 39 1.005007147789001 L 77.13683319091797 67.5 Z" stroke="none"/>
        <path d="M 39 2.009994506835938 L 1.726325988769531 67 L 76.273681640625 67 L 39 2.009994506835938 M 39 0 L 78 68 L 0 68 L 39 0 Z" stroke="none"/>
      </g>
      <g id="Polygon_5-2" data-name="Polygon 5" transform="translate(470.986 782.73) rotate(180)" fill="#fff">
        <path d="M 26.19170379638672 22.47929573059082 L 0.8747334480285645 22.47929573059082 L 13.53321838378906 0.9852975606918335 L 26.19170379638672 22.47929573059082 Z" stroke="none"/>
        <path d="M 13.53321838378906 1.970573425292969 L 1.74946403503418 21.97928428649902 L 25.31697273254395 21.97928428649902 L 13.53321838378906 1.970573425292969 M 13.53321838378906 -5.7220458984375e-06 L 27.06643867492676 22.97928428649902 L -1.9073486328125e-06 22.97928428649902 L 13.53321838378906 -5.7220458984375e-06 Z" stroke="none"/>
      </g>
      <g id="Polygon_6" data-name="Polygon 6" transform="translate(495.986 782.73) rotate(180)" fill="#fff">
        <path d="M 26.19170379638672 22.47929573059082 L 0.8747334480285645 22.47929573059082 L 13.53321838378906 0.9852975606918335 L 26.19170379638672 22.47929573059082 Z" stroke="none"/>
        <path d="M 13.53321838378906 1.970573425292969 L 1.74946403503418 21.97928428649902 L 25.31697273254395 21.97928428649902 L 13.53321838378906 1.970573425292969 M 13.53321838378906 -5.7220458984375e-06 L 27.06643867492676 22.97928428649902 L -1.9073486328125e-06 22.97928428649902 L 13.53321838378906 -5.7220458984375e-06 Z" stroke="none"/>
      </g>
      <g id="Polygon_7" data-name="Polygon 7" transform="translate(483.566 761.73) rotate(180)" fill="#fff">
        <path d="M 26.19170379638672 22.47929573059082 L 0.8747334480285645 22.47929573059082 L 13.53321838378906 0.9852975606918335 L 26.19170379638672 22.47929573059082 Z" stroke="none"/>
        <path d="M 13.53321838378906 1.970573425292969 L 1.74946403503418 21.97928428649902 L 25.31697273254395 21.97928428649902 L 13.53321838378906 1.970573425292969 M 13.53321838378906 -5.7220458984375e-06 L 27.06643867492676 22.97928428649902 L -1.9073486328125e-06 22.97928428649902 L 13.53321838378906 -5.7220458984375e-06 Z" stroke="none"/>
      </g>
    </g>
    <text id="_5" data-name="= 5" transform="translate(531 672)" font-size="20" font-family="Nunito-Regular, Nunito"><tspan x="0" y="0">= 5</tspan></text>
    <text id="_" data-name="= ?" transform="translate(533 748)" font-size="20" font-family="Nunito-Regular, Nunito"><tspan x="0" y="0">= ?</tspan></text>
  </g>
</svg>
