<svg xmlns="http://www.w3.org/2000/svg" width="210" height="176" viewBox="0 0 210 176">
  <g id="lv17" transform="translate(-1202.967 -631)">
    <g id="Group_44" data-name="Group 44" transform="translate(1203 631)">
      <path id="Polygon_8" data-name="Polygon 8" d="M26.5,0,53,46H0Z" transform="translate(11.967 23)"/>
      <text id="_9" data-name="9" transform="translate(32.967 20)" font-size="20" font-family="Nunito-Regular, Nunito"><tspan x="0" y="0">9</tspan></text>
      <text id="_3" data-name="3" transform="translate(-0.033 78)" font-size="20" font-family="Nunito-Regular, Nunito"><tspan x="0" y="0">3</tspan></text>
      <text id="_27" data-name="27" transform="translate(64.967 78)" font-size="20" font-family="Nunito-Regular, Nunito"><tspan x="0" y="0">27</tspan></text>
    </g>
    <g id="Group_45" data-name="Group 45" transform="translate(1323.934 631)">
      <path id="Polygon_8-2" data-name="Polygon 8" d="M26.5,0,53,46H0Z" transform="translate(12.033 23)"/>
      <text id="_2" data-name="2" transform="translate(33.033 20)" font-size="20" font-family="Nunito-Regular, Nunito"><tspan x="0" y="0">2</tspan></text>
      <text id="_8" data-name="8" transform="translate(0.033 78)" font-size="20" font-family="Nunito-Regular, Nunito"><tspan x="0" y="0">8</tspan></text>
      <text id="_16" data-name="16" transform="translate(65.033 78)" font-size="20" font-family="Nunito-Regular, Nunito"><tspan x="0" y="0">16</tspan></text>
    </g>
    <g id="Group_46" data-name="Group 46" transform="translate(1261.953 722)">
      <path id="Polygon_8-3" data-name="Polygon 8" d="M26.5,0,53,46H0Z" transform="translate(12.014 23)"/>
      <text id="_" data-name="?" transform="translate(33.014 20)" font-size="20" font-family="Nunito-Regular, Nunito"><tspan x="0" y="0">?</tspan></text>
      <text id="_3-2" data-name="3" transform="translate(0.014 78)" font-size="20" font-family="Nunito-Regular, Nunito"><tspan x="0" y="0">3</tspan></text>
      <text id="_9-2" data-name="9" transform="translate(65.014 78)" font-size="20" font-family="Nunito-Regular, Nunito"><tspan x="0" y="0">9</tspan></text>
    </g>
  </g>
</svg>
