<svg xmlns="http://www.w3.org/2000/svg" width="210" height="178" viewBox="0 0 210 178">
  <g id="lv20" transform="translate(-419 -904)">
    <g id="Group_49" data-name="Group 49" transform="translate(419 906)">
      <path id="Polygon_9" data-name="Polygon 9" d="M26.5,0,53,46H0Z" transform="translate(66 65) rotate(180)"/>
      <text id="_1" data-name="1" transform="translate(0 20)" font-size="20" font-family="Nunito-Regular, Nunito"><tspan x="0" y="0">1</tspan></text>
      <text id="_5" data-name="5" transform="translate(66 20)" font-size="20" font-family="Nunito-Regular, Nunito"><tspan x="0" y="0">5</tspan></text>
      <text id="_3" data-name="3" transform="translate(34 82)" font-size="20" font-family="Nunito-Regular, Nunito"><tspan x="0" y="0">3</tspan></text>
    </g>
    <g id="Group_50" data-name="Group 50" transform="translate(551 906)">
      <path id="Polygon_9-2" data-name="Polygon 9" d="M26.5,0,53,46H0Z" transform="translate(66 65) rotate(180)"/>
      <text id="_10" data-name="10" transform="translate(-11 18)" font-size="20" font-family="Nunito-Regular, Nunito"><tspan x="0" y="0">10</tspan></text>
      <text id="_6" data-name="6" transform="translate(66 20)" font-size="20" font-family="Nunito-Regular, Nunito"><tspan x="0" y="0">6</tspan></text>
      <text id="_8" data-name="8" transform="translate(34 82)" font-size="20" font-family="Nunito-Regular, Nunito"><tspan x="0" y="0">8</tspan></text>
    </g>
    <g id="Group_51" data-name="Group 51" transform="translate(483.183 993)">
      <path id="Polygon_9-3" data-name="Polygon 9" d="M26.5,0,53,46H0Z" transform="translate(66 65) rotate(180)"/>
      <text id="_7" data-name="7" transform="translate(0 20)" font-size="20" font-family="Nunito-Regular, Nunito"><tspan x="0" y="0">7</tspan></text>
      <text id="_1-2" data-name="1" transform="translate(66 20)" font-size="20" font-family="Nunito-Regular, Nunito"><tspan x="0" y="0">1</tspan></text>
      <text id="_" data-name="?" transform="translate(34 82)" font-size="20" font-family="Nunito-Regular, Nunito"><tspan x="0" y="0">?</tspan></text>
    </g>
  </g>
</svg>
