<svg xmlns="http://www.w3.org/2000/svg" width="250" height="222" viewBox="0 0 250 222">
  <g id="solution_lv26" transform="translate(-2825 -317)">
    <g id="Group_181" data-name="Group 181" transform="translate(1 142)">
      <text id="_7_12" data-name="7 + 12" transform="translate(2943 195)" font-size="20" font-family="Nunito-Regular, Nunito"><tspan x="-29.16" y="0">7 + 12</tspan></text>
      <text id="_12" data-name="12" transform="translate(2991 219)" font-size="20" font-family="Nunito-Regular, Nunito"><tspan x="0" y="0">12</tspan></text>
      <text id="_7" data-name="7" transform="translate(2878 219)" font-size="20" font-family="Nunito-Regular, Nunito"><tspan x="0" y="0">7</tspan></text>
      <text id="_4" data-name="4" transform="translate(2872 316)" font-size="20" font-family="Nunito-Regular, Nunito"><tspan x="0" y="0">4</tspan></text>
      <text id="_4_5" data-name="4 + 5" transform="translate(2920 343)" font-size="20" font-family="Nunito-Regular, Nunito"><tspan x="0" y="0">4 + 5</tspan></text>
      <text id="_5" data-name="5" transform="translate(2996 316)" font-size="20" font-family="Nunito-Regular, Nunito"><tspan x="0" y="0">5</tspan></text>
      <g id="Group_142" data-name="Group 142">
        <path id="Path_19" data-name="Path 19" d="M3501.958,1219.834h63.974L3598.6,1252.5v44.1l-32.666,32.666h-63.974l-32.666-32.666v-44.1Z" transform="translate(-591 -1012)"/>
        <text id="_7_4" data-name="7 + 4" transform="translate(2848 269)" font-size="20" font-family="Nunito-Regular, Nunito"><tspan x="-23.16" y="0">7 + 4</tspan></text>
        <text id="_12_5" data-name="12 + 5" transform="translate(3044 269)" font-size="20" font-family="Nunito-Regular, Nunito"><tspan x="-29.16" y="0">12 + 5</tspan></text>
      </g>
    </g>
    <g id="Group_182" data-name="Group 182" transform="translate(1 3)">
      <text id="_12_5-2" data-name="12 + 5" transform="translate(2925 529)" font-size="20" font-family="Nunito-Regular, Nunito"><tspan x="-29.16" y="0">12 + 5</tspan></text>
      <text id="_17" data-name="= 17" transform="translate(2981 529)" font-size="20" font-family="Nunito-Bold, Nunito" font-weight="700"><tspan x="-20.71" y="0">= 17</tspan></text>
    </g>
  </g>
</svg>
