<svg xmlns="http://www.w3.org/2000/svg" width="450" height="447" viewBox="0 0 450 447">
  <g id="solution_lv14" transform="translate(-485 -817)">
    <g id="Group_239" data-name="Group 239" transform="translate(485 817)">
      <g id="Group_238" data-name="Group 238">
        <g id="Group_222" data-name="Group 222">
          <g id="Group_221" data-name="Group 221">
            <g id="Polygon_4" data-name="Polygon 4" fill="none">
              <path d="M48.5,0,97,85H0Z" stroke="none"/>
              <path d="M 48.5 2.017807006835938 L 1.721923828125 84 L 95.278076171875 84 L 48.5 2.017807006835938 M 48.5 0 L 97 85 L 0 85 L 48.5 0 Z" stroke="none"/>
            </g>
            <g id="Polygon_5" data-name="Polygon 5" transform="translate(48.908 82.844) rotate(180)" fill="none">
              <path d="M16.553,0,33.106,28.107H0Z" stroke="none"/>
              <path d="M 16.55304527282715 1.9705810546875 L 1.749462127685547 27.10692405700684 L 31.35661888122559 27.10692405700684 L 16.55304527282715 1.9705810546875 M 16.55304527282715 3.814697265625e-06 L 33.10608673095703 28.10692405700684 L -3.814697265625e-06 28.10692405700684 L 16.55304527282715 3.814697265625e-06 Z" stroke="none"/>
            </g>
            <g id="Polygon_6" data-name="Polygon 6" transform="translate(79.486 82.844) rotate(180)" fill="none">
              <path d="M16.553,0,33.106,28.107H0Z" stroke="none"/>
              <path d="M 16.55304527282715 1.9705810546875 L 1.749462127685547 27.10692405700684 L 31.35661888122559 27.10692405700684 L 16.55304527282715 1.9705810546875 M 16.55304527282715 3.814697265625e-06 L 33.10608673095703 28.10692405700684 L -3.814697265625e-06 28.10692405700684 L 16.55304527282715 3.814697265625e-06 Z" stroke="none"/>
            </g>
            <g id="Polygon_7" data-name="Polygon 7" transform="translate(64.296 57.158) rotate(180)" fill="none">
              <path d="M16.553,0,33.106,28.107H0Z" stroke="none"/>
              <path d="M 16.55304527282715 1.9705810546875 L 1.749462127685547 27.10692405700684 L 31.35661888122559 27.10692405700684 L 16.55304527282715 1.9705810546875 M 16.55304527282715 3.814697265625e-06 L 33.10608673095703 28.10692405700684 L -3.814697265625e-06 28.10692405700684 L 16.55304527282715 3.814697265625e-06 Z" stroke="none"/>
            </g>
          </g>
          <path id="Polygon_14" data-name="Polygon 14" d="M16.5,0,33,32H0Z" transform="translate(32)"/>
        </g>
        <g id="Group_223" data-name="Group 223" transform="translate(117.66)">
          <g id="Group_221-2" data-name="Group 221">
            <g id="Polygon_4-2" data-name="Polygon 4" transform="translate(0.34)" fill="none">
              <path d="M48.5,0,97,85H0Z" stroke="none"/>
              <path d="M 48.5 2.017807006835938 L 1.721923828125 84 L 95.278076171875 84 L 48.5 2.017807006835938 M 48.5 0 L 97 85 L 0 85 L 48.5 0 Z" stroke="none"/>
            </g>
            <g id="Polygon_5-2" data-name="Polygon 5" transform="translate(48.908 82.844) rotate(180)" fill="none">
              <path d="M16.553,0,33.106,28.107H0Z" stroke="none"/>
              <path d="M 16.55304527282715 1.9705810546875 L 1.749462127685547 27.10692405700684 L 31.35661888122559 27.10692405700684 L 16.55304527282715 1.9705810546875 M 16.55304527282715 3.814697265625e-06 L 33.10608673095703 28.10692405700684 L -3.814697265625e-06 28.10692405700684 L 16.55304527282715 3.814697265625e-06 Z" stroke="none"/>
            </g>
            <g id="Polygon_6-2" data-name="Polygon 6" transform="translate(79.486 82.844) rotate(180)" fill="none">
              <path d="M16.553,0,33.106,28.107H0Z" stroke="none"/>
              <path d="M 16.55304527282715 1.9705810546875 L 1.749462127685547 27.10692405700684 L 31.35661888122559 27.10692405700684 L 16.55304527282715 1.9705810546875 M 16.55304527282715 3.814697265625e-06 L 33.10608673095703 28.10692405700684 L -3.814697265625e-06 28.10692405700684 L 16.55304527282715 3.814697265625e-06 Z" stroke="none"/>
            </g>
            <g id="Polygon_7-2" data-name="Polygon 7" transform="translate(64.296 57.158) rotate(180)" fill="none">
              <path d="M16.553,0,33.106,28.107H0Z" stroke="none"/>
              <path d="M 16.55304527282715 1.9705810546875 L 1.749462127685547 27.10692405700684 L 31.35661888122559 27.10692405700684 L 16.55304527282715 1.9705810546875 M 16.55304527282715 3.814697265625e-06 L 33.10608673095703 28.10692405700684 L -3.814697265625e-06 28.10692405700684 L 16.55304527282715 3.814697265625e-06 Z" stroke="none"/>
            </g>
          </g>
          <path id="Polygon_14-2" data-name="Polygon 14" d="M16,0,32,29H0Z" transform="translate(16.34 28)"/>
        </g>
        <g id="Group_224" data-name="Group 224" transform="translate(235.321)">
          <g id="Group_221-3" data-name="Group 221">
            <g id="Polygon_4-3" data-name="Polygon 4" transform="translate(-0.321)" fill="none">
              <path d="M49,0,98,85H0Z" stroke="none"/>
              <path d="M 49.00000381469727 2.002296447753906 L 1.730735778808594 84 L 96.26927185058594 84 L 49.00000381469727 2.002296447753906 M 49.00000381469727 0 L 98 85 L 7.62939453125e-06 85 L 49.00000381469727 0 Z" stroke="none"/>
            </g>
            <g id="Polygon_5-3" data-name="Polygon 5" transform="translate(48.908 82.844) rotate(180)" fill="none">
              <path d="M16.553,0,33.106,28.107H0Z" stroke="none"/>
              <path d="M 16.55304527282715 1.9705810546875 L 1.749462127685547 27.10692405700684 L 31.35661888122559 27.10692405700684 L 16.55304527282715 1.9705810546875 M 16.55304527282715 3.814697265625e-06 L 33.10608673095703 28.10692405700684 L -3.814697265625e-06 28.10692405700684 L 16.55304527282715 3.814697265625e-06 Z" stroke="none"/>
            </g>
            <g id="Polygon_6-3" data-name="Polygon 6" transform="translate(79.486 82.844) rotate(180)" fill="none">
              <path d="M16.553,0,33.106,28.107H0Z" stroke="none"/>
              <path d="M 16.55304527282715 1.9705810546875 L 1.749462127685547 27.10692405700684 L 31.35661888122559 27.10692405700684 L 16.55304527282715 1.9705810546875 M 16.55304527282715 3.814697265625e-06 L 33.10608673095703 28.10692405700684 L -3.814697265625e-06 28.10692405700684 L 16.55304527282715 3.814697265625e-06 Z" stroke="none"/>
            </g>
            <g id="Polygon_7-3" data-name="Polygon 7" transform="translate(64.296 57.158) rotate(180)" fill="none">
              <path d="M16.553,0,33.106,28.107H0Z" stroke="none"/>
              <path d="M 16.55304527282715 1.9705810546875 L 1.749462127685547 27.10692405700684 L 31.35661888122559 27.10692405700684 L 16.55304527282715 1.9705810546875 M 16.55304527282715 3.814697265625e-06 L 33.10608673095703 28.10692405700684 L -3.814697265625e-06 28.10692405700684 L 16.55304527282715 3.814697265625e-06 Z" stroke="none"/>
            </g>
          </g>
          <path id="Polygon_14-3" data-name="Polygon 14" d="M16,0,32,29H0Z" transform="translate(64.679 57) rotate(180)"/>
        </g>
        <g id="Group_225" data-name="Group 225" transform="translate(352.981)">
          <g id="Group_221-4" data-name="Group 221">
            <g id="Polygon_4-4" data-name="Polygon 4" transform="translate(0.019)" fill="none">
              <path d="M48.5,0,97,85H0Z" stroke="none"/>
              <path d="M 48.5 2.017807006835938 L 1.721923828125 84 L 95.278076171875 84 L 48.5 2.017807006835938 M 48.5 0 L 97 85 L 0 85 L 48.5 0 Z" stroke="none"/>
            </g>
            <g id="Polygon_5-4" data-name="Polygon 5" transform="translate(48.908 82.844) rotate(180)" fill="none">
              <path d="M16.553,0,33.106,28.107H0Z" stroke="none"/>
              <path d="M 16.55304527282715 1.9705810546875 L 1.749462127685547 27.10692405700684 L 31.35661888122559 27.10692405700684 L 16.55304527282715 1.9705810546875 M 16.55304527282715 3.814697265625e-06 L 33.10608673095703 28.10692405700684 L -3.814697265625e-06 28.10692405700684 L 16.55304527282715 3.814697265625e-06 Z" stroke="none"/>
            </g>
            <g id="Polygon_6-4" data-name="Polygon 6" transform="translate(79.486 82.844) rotate(180)" fill="none">
              <path d="M16.553,0,33.106,28.107H0Z" stroke="none"/>
              <path d="M 16.55304527282715 1.9705810546875 L 1.749462127685547 27.10692405700684 L 31.35661888122559 27.10692405700684 L 16.55304527282715 1.9705810546875 M 16.55304527282715 3.814697265625e-06 L 33.10608673095703 28.10692405700684 L -3.814697265625e-06 28.10692405700684 L 16.55304527282715 3.814697265625e-06 Z" stroke="none"/>
            </g>
            <g id="Polygon_7-4" data-name="Polygon 7" transform="translate(64.296 57.158) rotate(180)" fill="none">
              <path d="M16.553,0,33.106,28.107H0Z" stroke="none"/>
              <path d="M 16.55304527282715 1.9705810546875 L 1.749462127685547 27.10692405700684 L 31.35661888122559 27.10692405700684 L 16.55304527282715 1.9705810546875 M 16.55304527282715 3.814697265625e-06 L 33.10608673095703 28.10692405700684 L -3.814697265625e-06 28.10692405700684 L 16.55304527282715 3.814697265625e-06 Z" stroke="none"/>
            </g>
          </g>
          <path id="Polygon_14-4" data-name="Polygon 14" d="M16.5,0,33,27H0Z" transform="translate(48.019 28)"/>
        </g>
      </g>
      <g id="Group_237" data-name="Group 237" transform="translate(0 109.546)">
        <g id="Group_226" data-name="Group 226">
          <g id="Group_221-5" data-name="Group 221">
            <g id="Polygon_4-5" data-name="Polygon 4" transform="translate(0 0.454)" fill="none">
              <path d="M48.5,0,97,85H0Z" stroke="none"/>
              <path d="M 48.5 2.017807006835938 L 1.721923828125 84 L 95.278076171875 84 L 48.5 2.017807006835938 M 48.5 0 L 97 85 L 0 85 L 48.5 0 Z" stroke="none"/>
            </g>
            <g id="Polygon_5-5" data-name="Polygon 5" transform="translate(48.908 82.844) rotate(180)" fill="none">
              <path d="M16.553,0,33.106,28.107H0Z" stroke="none"/>
              <path d="M 16.55304527282715 1.9705810546875 L 1.749462127685547 27.10692405700684 L 31.35661888122559 27.10692405700684 L 16.55304527282715 1.9705810546875 M 16.55304527282715 3.814697265625e-06 L 33.10608673095703 28.10692405700684 L -3.814697265625e-06 28.10692405700684 L 16.55304527282715 3.814697265625e-06 Z" stroke="none"/>
            </g>
            <g id="Polygon_6-5" data-name="Polygon 6" transform="translate(79.486 82.844) rotate(180)" fill="none">
              <path d="M16.553,0,33.106,28.107H0Z" stroke="none"/>
              <path d="M 16.55304527282715 1.9705810546875 L 1.749462127685547 27.10692405700684 L 31.35661888122559 27.10692405700684 L 16.55304527282715 1.9705810546875 M 16.55304527282715 3.814697265625e-06 L 33.10608673095703 28.10692405700684 L -3.814697265625e-06 28.10692405700684 L 16.55304527282715 3.814697265625e-06 Z" stroke="none"/>
            </g>
            <g id="Polygon_7-5" data-name="Polygon 7" transform="translate(64.296 57.158) rotate(180)" fill="none">
              <path d="M16.553,0,33.106,28.107H0Z" stroke="none"/>
              <path d="M 16.55304527282715 1.9705810546875 L 1.749462127685547 27.10692405700684 L 31.35661888122559 27.10692405700684 L 16.55304527282715 1.9705810546875 M 16.55304527282715 3.814697265625e-06 L 33.10608673095703 28.10692405700684 L -3.814697265625e-06 28.10692405700684 L 16.55304527282715 3.814697265625e-06 Z" stroke="none"/>
            </g>
          </g>
          <path id="Polygon_14-5" data-name="Polygon 14" d="M16.5,0,33,33H0Z" transform="translate(1 52.454)"/>
        </g>
        <g id="Group_227" data-name="Group 227" transform="translate(117.66)">
          <g id="Group_221-6" data-name="Group 221">
            <g id="Polygon_4-6" data-name="Polygon 4" transform="translate(0.34 0.454)" fill="none">
              <path d="M48.5,0,97,85H0Z" stroke="none"/>
              <path d="M 48.5 2.017807006835938 L 1.721923828125 84 L 95.278076171875 84 L 48.5 2.017807006835938 M 48.5 0 L 97 85 L 0 85 L 48.5 0 Z" stroke="none"/>
            </g>
            <g id="Polygon_5-6" data-name="Polygon 5" transform="translate(48.908 82.844) rotate(180)" fill="none">
              <path d="M16.553,0,33.106,28.107H0Z" stroke="none"/>
              <path d="M 16.55304527282715 1.9705810546875 L 1.749462127685547 27.10692405700684 L 31.35661888122559 27.10692405700684 L 16.55304527282715 1.9705810546875 M 16.55304527282715 3.814697265625e-06 L 33.10608673095703 28.10692405700684 L -3.814697265625e-06 28.10692405700684 L 16.55304527282715 3.814697265625e-06 Z" stroke="none"/>
            </g>
            <g id="Polygon_6-6" data-name="Polygon 6" transform="translate(79.486 82.844) rotate(180)" fill="none">
              <path d="M16.553,0,33.106,28.107H0Z" stroke="none"/>
              <path d="M 16.55304527282715 1.9705810546875 L 1.749462127685547 27.10692405700684 L 31.35661888122559 27.10692405700684 L 16.55304527282715 1.9705810546875 M 16.55304527282715 3.814697265625e-06 L 33.10608673095703 28.10692405700684 L -3.814697265625e-06 28.10692405700684 L 16.55304527282715 3.814697265625e-06 Z" stroke="none"/>
            </g>
            <g id="Polygon_7-6" data-name="Polygon 7" transform="translate(64.296 57.158) rotate(180)" fill="none">
              <path d="M16.553,0,33.106,28.107H0Z" stroke="none"/>
              <path d="M 16.55304527282715 1.9705810546875 L 1.749462127685547 27.10692405700684 L 31.35661888122559 27.10692405700684 L 16.55304527282715 1.9705810546875 M 16.55304527282715 3.814697265625e-06 L 33.10608673095703 28.10692405700684 L -3.814697265625e-06 28.10692405700684 L 16.55304527282715 3.814697265625e-06 Z" stroke="none"/>
            </g>
          </g>
          <path id="Path_20" data-name="Path 20" d="M16.229,0,31.11,30.183.069,30.04Z" transform="matrix(-0.999, 0.035, -0.035, -0.999, 49.173, 84.627)"/>
        </g>
        <g id="Group_228" data-name="Group 228" transform="translate(235.321)">
          <g id="Group_221-7" data-name="Group 221">
            <g id="Polygon_4-7" data-name="Polygon 4" transform="translate(-0.321 0.454)" fill="none">
              <path d="M49,0,98,85H0Z" stroke="none"/>
              <path d="M 49.00000381469727 2.002296447753906 L 1.730735778808594 84 L 96.26927185058594 84 L 49.00000381469727 2.002296447753906 M 49.00000381469727 0 L 98 85 L 7.62939453125e-06 85 L 49.00000381469727 0 Z" stroke="none"/>
            </g>
            <g id="Polygon_5-7" data-name="Polygon 5" transform="translate(48.908 82.844) rotate(180)" fill="none">
              <path d="M16.553,0,33.106,28.107H0Z" stroke="none"/>
              <path d="M 16.55304527282715 1.9705810546875 L 1.749462127685547 27.10692405700684 L 31.35661888122559 27.10692405700684 L 16.55304527282715 1.9705810546875 M 16.55304527282715 3.814697265625e-06 L 33.10608673095703 28.10692405700684 L -3.814697265625e-06 28.10692405700684 L 16.55304527282715 3.814697265625e-06 Z" stroke="none"/>
            </g>
            <g id="Polygon_6-7" data-name="Polygon 6" transform="translate(79.486 82.844) rotate(180)" fill="none">
              <path d="M16.553,0,33.106,28.107H0Z" stroke="none"/>
              <path d="M 16.55304527282715 1.9705810546875 L 1.749462127685547 27.10692405700684 L 31.35661888122559 27.10692405700684 L 16.55304527282715 1.9705810546875 M 16.55304527282715 3.814697265625e-06 L 33.10608673095703 28.10692405700684 L -3.814697265625e-06 28.10692405700684 L 16.55304527282715 3.814697265625e-06 Z" stroke="none"/>
            </g>
            <g id="Polygon_7-7" data-name="Polygon 7" transform="translate(64.296 57.158) rotate(180)" fill="none">
              <path d="M16.553,0,33.106,28.107H0Z" stroke="none"/>
              <path d="M 16.55304527282715 1.9705810546875 L 1.749462127685547 27.10692405700684 L 31.35661888122559 27.10692405700684 L 16.55304527282715 1.9705810546875 M 16.55304527282715 3.814697265625e-06 L 33.10608673095703 28.10692405700684 L -3.814697265625e-06 28.10692405700684 L 16.55304527282715 3.814697265625e-06 Z" stroke="none"/>
            </g>
          </g>
          <path id="Polygon_14-6" data-name="Polygon 14" d="M18,0,36,33H0Z" transform="translate(28.679 52.454)"/>
        </g>
        <g id="Group_229" data-name="Group 229" transform="translate(352.981)">
          <g id="Group_221-8" data-name="Group 221">
            <g id="Polygon_4-8" data-name="Polygon 4" transform="translate(0.019 0.454)" fill="none">
              <path d="M48.5,0,97,85H0Z" stroke="none"/>
              <path d="M 48.5 2.017807006835938 L 1.721923828125 84 L 95.278076171875 84 L 48.5 2.017807006835938 M 48.5 0 L 97 85 L 0 85 L 48.5 0 Z" stroke="none"/>
            </g>
            <g id="Polygon_5-8" data-name="Polygon 5" transform="translate(48.908 82.844) rotate(180)" fill="none">
              <path d="M16.553,0,33.106,28.107H0Z" stroke="none"/>
              <path d="M 16.55304527282715 1.9705810546875 L 1.749462127685547 27.10692405700684 L 31.35661888122559 27.10692405700684 L 16.55304527282715 1.9705810546875 M 16.55304527282715 3.814697265625e-06 L 33.10608673095703 28.10692405700684 L -3.814697265625e-06 28.10692405700684 L 16.55304527282715 3.814697265625e-06 Z" stroke="none"/>
            </g>
            <g id="Polygon_6-8" data-name="Polygon 6" transform="translate(79.486 82.844) rotate(180)" fill="none">
              <path d="M16.553,0,33.106,28.107H0Z" stroke="none"/>
              <path d="M 16.55304527282715 1.9705810546875 L 1.749462127685547 27.10692405700684 L 31.35661888122559 27.10692405700684 L 16.55304527282715 1.9705810546875 M 16.55304527282715 3.814697265625e-06 L 33.10608673095703 28.10692405700684 L -3.814697265625e-06 28.10692405700684 L 16.55304527282715 3.814697265625e-06 Z" stroke="none"/>
            </g>
            <g id="Polygon_7-8" data-name="Polygon 7" transform="translate(64.296 57.158) rotate(180)" fill="none">
              <path d="M16.553,0,33.106,28.107H0Z" stroke="none"/>
              <path d="M 16.55304527282715 1.9705810546875 L 1.749462127685547 27.10692405700684 L 31.35661888122559 27.10692405700684 L 16.55304527282715 1.9705810546875 M 16.55304527282715 3.814697265625e-06 L 33.10608673095703 28.10692405700684 L -3.814697265625e-06 28.10692405700684 L 16.55304527282715 3.814697265625e-06 Z" stroke="none"/>
            </g>
          </g>
          <path id="Polygon_14-7" data-name="Polygon 14" d="M16.229,0,32.458,28.4H0Z" transform="translate(80.895 85.483) rotate(-179)"/>
        </g>
      </g>
    </g>
    <g id="Group_236" data-name="Group 236" transform="translate(485 1036.092)">
      <g id="Group_230" data-name="Group 230">
        <g id="Group_221-9" data-name="Group 221">
          <g id="Polygon_4-9" data-name="Polygon 4" transform="translate(0 -0.092)" fill="none">
            <path d="M48.5,0,97,85H0Z" stroke="none"/>
            <path d="M 48.5 2.017807006835938 L 1.721923828125 84 L 95.278076171875 84 L 48.5 2.017807006835938 M 48.5 0 L 97 85 L 0 85 L 48.5 0 Z" stroke="none"/>
          </g>
          <g id="Polygon_5-9" data-name="Polygon 5" transform="translate(48.908 82.844) rotate(180)" fill="none">
            <path d="M16.553,0,33.106,28.107H0Z" stroke="none"/>
            <path d="M 16.55304527282715 1.9705810546875 L 1.749462127685547 27.10692405700684 L 31.35661888122559 27.10692405700684 L 16.55304527282715 1.9705810546875 M 16.55304527282715 3.814697265625e-06 L 33.10608673095703 28.10692405700684 L -3.814697265625e-06 28.10692405700684 L 16.55304527282715 3.814697265625e-06 Z" stroke="none"/>
          </g>
          <g id="Polygon_6-9" data-name="Polygon 6" transform="translate(79.486 82.844) rotate(180)" fill="none">
            <path d="M16.553,0,33.106,28.107H0Z" stroke="none"/>
            <path d="M 16.55304527282715 1.9705810546875 L 1.749462127685547 27.10692405700684 L 31.35661888122559 27.10692405700684 L 16.55304527282715 1.9705810546875 M 16.55304527282715 3.814697265625e-06 L 33.10608673095703 28.10692405700684 L -3.814697265625e-06 28.10692405700684 L 16.55304527282715 3.814697265625e-06 Z" stroke="none"/>
          </g>
          <g id="Polygon_7-9" data-name="Polygon 7" transform="translate(64.296 57.158) rotate(180)" fill="none">
            <path d="M16.553,0,33.106,28.107H0Z" stroke="none"/>
            <path d="M 16.55304527282715 1.9705810546875 L 1.749462127685547 27.10692405700684 L 31.35661888122559 27.10692405700684 L 16.55304527282715 1.9705810546875 M 16.55304527282715 3.814697265625e-06 L 33.10608673095703 28.10692405700684 L -3.814697265625e-06 28.10692405700684 L 16.55304527282715 3.814697265625e-06 Z" stroke="none"/>
          </g>
        </g>
        <path id="Polygon_14-8" data-name="Polygon 14" d="M18,0,36,32H0Z" transform="translate(61 52.908)"/>
      </g>
      <g id="Group_231" data-name="Group 231" transform="translate(117.66)">
        <g id="Group_221-10" data-name="Group 221">
          <g id="Polygon_4-10" data-name="Polygon 4" transform="translate(0.34 -0.092)" fill="none">
            <path d="M48.5,0,97,85H0Z" stroke="none"/>
            <path d="M 48.5 2.017807006835938 L 1.721923828125 84 L 95.278076171875 84 L 48.5 2.017807006835938 M 48.5 0 L 97 85 L 0 85 L 48.5 0 Z" stroke="none"/>
          </g>
          <g id="Polygon_5-10" data-name="Polygon 5" transform="translate(48.908 82.844) rotate(180)" fill="none">
            <path d="M16.553,0,33.106,28.107H0Z" stroke="none"/>
            <path d="M 16.55304527282715 1.9705810546875 L 1.749462127685547 27.10692405700684 L 31.35661888122559 27.10692405700684 L 16.55304527282715 1.9705810546875 M 16.55304527282715 3.814697265625e-06 L 33.10608673095703 28.10692405700684 L -3.814697265625e-06 28.10692405700684 L 16.55304527282715 3.814697265625e-06 Z" stroke="none"/>
          </g>
          <g id="Polygon_6-10" data-name="Polygon 6" transform="translate(79.486 82.844) rotate(180)" fill="none">
            <path d="M16.553,0,33.106,28.107H0Z" stroke="none"/>
            <path d="M 16.55304527282715 1.9705810546875 L 1.749462127685547 27.10692405700684 L 31.35661888122559 27.10692405700684 L 16.55304527282715 1.9705810546875 M 16.55304527282715 3.814697265625e-06 L 33.10608673095703 28.10692405700684 L -3.814697265625e-06 28.10692405700684 L 16.55304527282715 3.814697265625e-06 Z" stroke="none"/>
          </g>
          <g id="Polygon_7-10" data-name="Polygon 7" transform="translate(64.296 57.158) rotate(180)" fill="none">
            <path d="M16.553,0,33.106,28.107H0Z" stroke="none"/>
            <path d="M 16.55304527282715 1.9705810546875 L 1.749462127685547 27.10692405700684 L 31.35661888122559 27.10692405700684 L 16.55304527282715 1.9705810546875 M 16.55304527282715 3.814697265625e-06 L 33.10608673095703 28.10692405700684 L -3.814697265625e-06 28.10692405700684 L 16.55304527282715 3.814697265625e-06 Z" stroke="none"/>
          </g>
        </g>
        <path id="Polygon_14-9" data-name="Polygon 14" d="M32.5,0,65,57H0Z" transform="translate(16.34 -0.092)"/>
      </g>
      <g id="Group_232" data-name="Group 232" transform="translate(235.321)">
        <g id="Group_221-11" data-name="Group 221">
          <g id="Polygon_4-11" data-name="Polygon 4" transform="translate(-0.321 -0.092)" fill="none">
            <path d="M49,0,98,85H0Z" stroke="none"/>
            <path d="M 48.99999618530273 2.002296447753906 L 1.730728149414063 84 L 96.26926422119141 84 L 48.99999618530273 2.002296447753906 M 48.99999618530273 0 L 98 85 L -7.62939453125e-06 85 L 48.99999618530273 0 Z" stroke="none"/>
          </g>
          <g id="Polygon_5-11" data-name="Polygon 5" transform="translate(48.908 82.844) rotate(180)" fill="none">
            <path d="M16.553,0,33.106,28.107H0Z" stroke="none"/>
            <path d="M 16.55304527282715 1.9705810546875 L 1.749462127685547 27.10692405700684 L 31.35661888122559 27.10692405700684 L 16.55304527282715 1.9705810546875 M 16.55304527282715 3.814697265625e-06 L 33.10608673095703 28.10692405700684 L -3.814697265625e-06 28.10692405700684 L 16.55304527282715 3.814697265625e-06 Z" stroke="none"/>
          </g>
          <g id="Polygon_6-11" data-name="Polygon 6" transform="translate(79.486 82.844) rotate(180)" fill="none">
            <path d="M16.553,0,33.106,28.107H0Z" stroke="none"/>
            <path d="M 16.55304527282715 1.9705810546875 L 1.749462127685547 27.10692405700684 L 31.35661888122559 27.10692405700684 L 16.55304527282715 1.9705810546875 M 16.55304527282715 3.814697265625e-06 L 33.10608673095703 28.10692405700684 L -3.814697265625e-06 28.10692405700684 L 16.55304527282715 3.814697265625e-06 Z" stroke="none"/>
          </g>
          <g id="Polygon_7-11" data-name="Polygon 7" transform="translate(64.296 57.158) rotate(180)" fill="none">
            <path d="M16.553,0,33.106,28.107H0Z" stroke="none"/>
            <path d="M 16.55304527282715 1.9705810546875 L 1.749462127685547 27.10692405700684 L 31.35661888122559 27.10692405700684 L 16.55304527282715 1.9705810546875 M 16.55304527282715 3.814697265625e-06 L 33.10608673095703 28.10692405700684 L -3.814697265625e-06 28.10692405700684 L 16.55304527282715 3.814697265625e-06 Z" stroke="none"/>
          </g>
        </g>
        <path id="Polygon_14-10" data-name="Polygon 14" d="M33,0,66,56H0Z" transform="translate(-0.321 28.908)"/>
      </g>
      <g id="Group_233" data-name="Group 233" transform="translate(352.981)">
        <g id="Group_221-12" data-name="Group 221">
          <g id="Polygon_4-12" data-name="Polygon 4" transform="translate(0.019 -0.092)" fill="none">
            <path d="M48.5,0,97,85H0Z" stroke="none"/>
            <path d="M 48.5 2.017807006835938 L 1.721923828125 84 L 95.278076171875 84 L 48.5 2.017807006835938 M 48.5 0 L 97 85 L 0 85 L 48.5 0 Z" stroke="none"/>
          </g>
          <g id="Polygon_5-12" data-name="Polygon 5" transform="translate(48.908 82.844) rotate(180)" fill="none">
            <path d="M16.553,0,33.106,28.107H0Z" stroke="none"/>
            <path d="M 16.55304527282715 1.9705810546875 L 1.749462127685547 27.10692405700684 L 31.35661888122559 27.10692405700684 L 16.55304527282715 1.9705810546875 M 16.55304527282715 3.814697265625e-06 L 33.10608673095703 28.10692405700684 L -3.814697265625e-06 28.10692405700684 L 16.55304527282715 3.814697265625e-06 Z" stroke="none"/>
          </g>
          <g id="Polygon_6-12" data-name="Polygon 6" transform="translate(79.486 82.844) rotate(180)" fill="none">
            <path d="M16.553,0,33.106,28.107H0Z" stroke="none"/>
            <path d="M 16.55304527282715 1.9705810546875 L 1.749462127685547 27.10692405700684 L 31.35661888122559 27.10692405700684 L 16.55304527282715 1.9705810546875 M 16.55304527282715 3.814697265625e-06 L 33.10608673095703 28.10692405700684 L -3.814697265625e-06 28.10692405700684 L 16.55304527282715 3.814697265625e-06 Z" stroke="none"/>
          </g>
          <g id="Polygon_7-12" data-name="Polygon 7" transform="translate(64.296 57.158) rotate(180)" fill="none">
            <path d="M16.553,0,33.106,28.107H0Z" stroke="none"/>
            <path d="M 16.55304527282715 1.9705810546875 L 1.749462127685547 27.10692405700684 L 31.35661888122559 27.10692405700684 L 16.55304527282715 1.9705810546875 M 16.55304527282715 3.814697265625e-06 L 33.10608673095703 28.10692405700684 L -3.814697265625e-06 28.10692405700684 L 16.55304527282715 3.814697265625e-06 Z" stroke="none"/>
          </g>
        </g>
        <path id="Polygon_14-11" data-name="Polygon 14" d="M33,0,66,56H0Z" transform="translate(31.019 28.908)"/>
      </g>
    </g>
    <g id="Group_235" data-name="Group 235" transform="translate(485 1145.637)">
      <g id="Group_234" data-name="Group 234">
        <g id="Group_221-13" data-name="Group 221">
          <g id="Polygon_4-13" data-name="Polygon 4" transform="translate(0 0.363)" fill="#fff">
            <path d="M 96.1390380859375 84.5 L 0.8609609007835388 84.5 L 48.5 1.00890052318573 L 96.1390380859375 84.5 Z" stroke="none"/>
            <path d="M 48.5 2.017807006835938 L 1.721923828125 84 L 95.278076171875 84 L 48.5 2.017807006835938 M 48.5 0 L 97 85 L 0 85 L 48.5 0 Z" stroke="none"/>
          </g>
          <g id="Polygon_5-13" data-name="Polygon 5" transform="translate(48.908 82.844) rotate(180)" fill="#fff">
            <path d="M 32.23136138916016 27.60692405700684 L 0.8747403025627136 27.60692405700684 L 16.55304527282715 0.985296368598938 L 32.23136138916016 27.60692405700684 Z" stroke="none"/>
            <path d="M 16.55304527282715 1.9705810546875 L 1.749462127685547 27.10692405700684 L 31.35661888122559 27.10692405700684 L 16.55304527282715 1.9705810546875 M 16.55304527282715 3.814697265625e-06 L 33.10608673095703 28.10692405700684 L -3.814697265625e-06 28.10692405700684 L 16.55304527282715 3.814697265625e-06 Z" stroke="none"/>
          </g>
          <g id="Polygon_6-13" data-name="Polygon 6" transform="translate(79.486 82.844) rotate(180)" fill="#fff">
            <path d="M 32.23136138916016 27.60692405700684 L 0.8747403025627136 27.60692405700684 L 16.55304527282715 0.985296368598938 L 32.23136138916016 27.60692405700684 Z" stroke="none"/>
            <path d="M 16.55304527282715 1.9705810546875 L 1.749462127685547 27.10692405700684 L 31.35661888122559 27.10692405700684 L 16.55304527282715 1.9705810546875 M 16.55304527282715 3.814697265625e-06 L 33.10608673095703 28.10692405700684 L -3.814697265625e-06 28.10692405700684 L 16.55304527282715 3.814697265625e-06 Z" stroke="none"/>
          </g>
          <g id="Polygon_7-13" data-name="Polygon 7" transform="translate(64.296 57.158) rotate(180)" fill="#fff">
            <path d="M 32.23136138916016 27.60692405700684 L 0.8747403025627136 27.60692405700684 L 16.55304527282715 0.985296368598938 L 32.23136138916016 27.60692405700684 Z" stroke="none"/>
            <path d="M 16.55304527282715 1.9705810546875 L 1.749462127685547 27.10692405700684 L 31.35661888122559 27.10692405700684 L 16.55304527282715 1.9705810546875 M 16.55304527282715 3.814697265625e-06 L 33.10608673095703 28.10692405700684 L -3.814697265625e-06 28.10692405700684 L 16.55304527282715 3.814697265625e-06 Z" stroke="none"/>
          </g>
        </g>
        <path id="Polygon_14-12" data-name="Polygon 14" d="M48.5,0,97,85H0Z" transform="translate(0 0.363)"/>
      </g>
      <text id="There_are_13_triangles" data-name="There are 13 triangles" transform="translate(146 0.363)" font-size="20" font-family="Nunito-Regular, Nunito"><tspan x="0" y="20">There are 13 triangles</tspan></text>
    </g>
  </g>
</svg>
